<svg width="100%" height="100%" id="svg" viewBox="0 0 1440 690" xmlns="http://www.w3.org/2000/svg" class="transition duration-300 ease-in-out delay-150"><path d="M 0,700 L 0,131 C 46.20520409421631,141.71046984831668 92.41040818843263,152.42093969663338 143,153 C 193.58959181156737,153.57906030336662 248.5635713404859,144.0267110617832 307,181 C 365.4364286595141,217.9732889382168 427.3353064496239,301.47221605623383 481,332 C 534.6646935503761,362.52778394376617 580.0952028610187,340.0844247132816 637,338 C 693.9047971389813,335.9155752867184 762.2838821063015,354.1900850906401 820,391 C 877.7161178936985,427.8099149093599 924.7692687137749,483.1552349241583 978,513 C 1031.2307312862251,542.8447650758417 1090.639043038599,547.1889752127266 1145,580 C 1199.360956961401,612.8110247872734 1248.6745591318288,674.0888642249353 1297,704 C 1345.3254408681712,733.9111357750647 1392.6627204340857,732.4555678875324 1440,731 L 1440,700 L 0,700 Z" stroke="none" stroke-width="0" fill="#fcb900" fill-opacity="0.4" class="transition-all duration-300 ease-in-out delay-150 path-0" transform="rotate(-180 720 350)"></path><path d="M 0,700 L 0,306 C 40.26819583179183,317.51811567394253 80.53639166358366,329.03623134788506 142,324 C 203.46360833641634,318.96376865211494 286.1226291774571,297.3731902824022 346,319 C 405.8773708225429,340.6268097175978 442.9730916265877,405.4710075225059 485,430 C 527.0269083734123,454.5289924774941 573.985004316192,438.74277962757435 624,470 C 674.014995683808,501.25722037242565 727.0868911086446,579.557873967197 779,610 C 830.9131088913554,640.442126032803 881.6674312492294,623.0257245036378 934,654 C 986.3325687507706,684.9742754963622 1040.2433838944382,764.3392280182513 1102,792 C 1163.7566161055618,819.6607719817487 1233.3590331730177,795.6173634233568 1291,806 C 1348.6409668269823,816.3826365766432 1394.3204834134913,861.1913182883216 1440,906 L 1440,700 L 0,700 Z" stroke="none" stroke-width="0" fill="#fcb900" fill-opacity="0.53" class="transition-all duration-300 ease-in-out delay-150 path-1" transform="rotate(-180 720 350)"></path><path d="M 0,700 L 0,481 C 49.301319521519304,466.0154149710198 98.60263904303861,451.0308299420397 145,457 C 191.3973609569614,462.9691700579603 234.89076334936487,489.892095202861 292,508 C 349.1092366506351,526.107904797139 419.8343075595018,535.4007892465162 479,575 C 538.1656924404982,614.5992107534838 585.7720064126279,684.504747811074 639,735 C 692.2279935873721,785.495252188926 751.0776667899866,816.5802195091875 797,843 C 842.9223332100134,869.4197804908125 875.9173264274262,891.1743741521765 930,893 C 984.0826735725738,894.8256258478235 1059.2530275003082,876.7222838821065 1114,887 C 1168.7469724996918,897.2777161178935 1203.0705635713407,935.9364903193981 1254,973 C 1304.9294364286593,1010.0635096806019 1372.4647182143297,1045.531754840301 1440,1081 L 1440,700 L 0,700 Z" stroke="none" stroke-width="0" fill="#fcb900" fill-opacity="1" class="transition-all duration-300 ease-in-out delay-150 path-2" transform="rotate(-180 720 350)"></path></svg>